<svg width="215" height="47" viewBox="0 0 215 47" fill="none" xmlns="http://www.w3.org/2000/svg">
<path d="M58.0137 15.0645C56.0485 18.2482 54.109 21.3806 52.1352 24.573C52.3069 24.5987 52.4184 24.6245 52.5386 24.6245C54.6068 24.6159 56.6836 24.6073 58.7517 24.5902C59.052 24.5902 59.3525 24.5816 59.6614 24.573C59.8673 24.5644 60.0219 24.6416 60.1248 24.8218C60.7512 25.8688 61.3777 26.9158 61.9956 27.9627C62.0042 27.9799 61.9956 28.0142 61.9956 28.0829C61.9098 28.1001 61.824 28.1344 61.7296 28.1344C58.0137 28.143 54.3064 28.143 50.5905 28.143C50.4876 28.143 50.3931 28.143 50.2902 28.143C50.0842 28.1344 49.9554 28.2202 49.8439 28.409C48.8227 30.194 47.7929 31.9704 46.7631 33.7468C46.6516 33.9356 46.5399 34.1158 46.437 34.3047C46.334 34.4934 46.1881 34.5707 45.9822 34.5621C44.4289 34.5192 42.8756 34.4763 41.3223 34.4419C41.2536 34.4419 41.185 34.4162 41.082 34.3991C41.1163 34.3046 41.1249 34.2274 41.1678 34.1587C42.6267 31.8846 44.0856 29.619 45.5359 27.3448C46.4284 25.9546 47.3037 24.5558 48.1962 23.1656C49.1231 21.7153 50.0585 20.265 50.9853 18.8146C51.8606 17.4502 52.7274 16.0771 53.6027 14.7127C54.3493 13.5541 55.1045 12.3956 55.8597 11.2542C56.4089 10.4218 57.5589 10.0356 58.4428 10.3617C58.8118 10.499 59.1465 10.6792 59.3868 11.0054C60.4766 12.4814 61.5665 13.966 62.6564 15.4421C63.9436 17.1842 65.2309 18.9348 66.5181 20.6769C67.9685 22.6421 69.4102 24.6159 70.8519 26.5811C72.4481 28.7437 74.0443 30.8977 75.6405 33.0517C75.9409 33.455 76.2326 33.8584 76.5673 34.3047C76.4472 34.3218 76.327 34.3561 76.2155 34.3647C75.0655 34.3991 73.9156 34.4333 72.7656 34.4677C72.5253 34.4763 72.2764 34.4763 72.0362 34.5106C71.7616 34.5449 71.5813 34.4419 71.4269 34.2102C70.8605 33.3778 70.2769 32.5625 69.702 31.7387C68.4748 29.988 67.2562 28.2288 66.0376 26.4696C64.5615 24.3499 63.0855 22.2302 61.6094 20.1105C60.5024 18.5229 59.3868 16.9353 58.2712 15.3477C58.2025 15.2533 58.1167 15.1846 58.0137 15.0645Z" fill="#1B559B"/>
<path d="M84.7373 16.5798C84.3339 17.0518 83.9648 17.4809 83.6045 17.9272C82.4889 19.3002 81.3818 20.6733 80.2576 22.0378C79.3222 23.1791 78.3696 24.3205 77.4342 25.4618C77.0824 25.891 76.7305 25.9424 76.3529 25.5477C75.8809 25.0499 75.4433 24.5093 74.997 23.9858C74.4735 23.3593 73.95 22.7243 73.4351 22.0978C72.8773 21.4113 72.3195 20.7076 71.7617 20.0125C70.6289 18.6223 69.4961 17.2234 68.3548 15.8332C67.3851 14.6404 66.4067 13.4475 65.437 12.2632C65.068 11.8084 64.6904 11.3536 64.2957 10.8816C64.5101 10.5211 64.7419 10.2379 65.2224 10.2465C66.1149 10.2637 67.0074 10.2551 67.8999 10.2551C68.3204 10.2551 68.6466 10.4096 68.9126 10.7357C69.8652 11.9457 70.8091 13.1557 71.7703 14.3572C73.049 15.9619 74.3362 17.5667 75.6149 19.1715C75.9066 19.5405 76.1984 19.9181 76.4817 20.2956C76.576 20.4158 76.6791 20.5359 76.7734 20.6561C77.0223 20.4759 84.4283 10.8043 84.7458 10.2551C85.0204 10.2551 85.3208 10.2551 85.6211 10.2551C86.2991 10.2551 86.9773 10.2551 87.6464 10.2551C88.1439 10.2551 88.4442 10.5383 88.4529 11.0446C88.4617 12.924 88.4617 14.812 88.4617 16.6914C88.4617 21.7202 88.4705 26.7491 88.4705 31.7865C88.4705 32.7477 88.4873 33.7088 88.4873 34.6786C88.4873 35.1677 88.1615 35.5196 87.672 35.5196C86.994 35.5282 86.3163 35.5282 85.6469 35.5282C85.1491 35.5282 84.823 35.2021 84.823 34.7043C84.823 32.7391 84.823 30.7653 84.823 28.8001C84.823 24.7924 84.8145 20.7763 84.8059 16.7686C84.7973 16.7171 84.7801 16.6914 84.7373 16.5798Z" fill="#1B559B"/>
<path d="M167.859 32.1205C167.859 31.6485 167.877 31.1679 167.851 30.6959C167.834 30.4213 167.954 30.2668 168.185 30.1552C168.237 30.1295 168.297 30.1209 168.34 30.078C168.529 29.915 168.684 29.9836 168.881 30.1037C169.61 30.5586 170.34 31.022 171.086 31.4425C171.945 31.9231 172.863 32.2749 173.832 32.4208C174.879 32.5753 175.917 32.5581 176.879 31.9574C177.763 31.3996 178.287 30.6101 178.475 29.606C178.569 29.0911 178.578 28.5504 178.569 28.0184C178.56 27.5893 178.321 27.2289 178.037 26.9199C177.17 25.9846 176.089 25.3753 174.922 24.9033C173.661 24.3884 172.365 23.9593 171.164 23.307C169.67 22.5004 168.529 21.3762 167.928 19.7628C167.645 18.9905 167.542 18.1752 167.465 17.36C167.293 15.6007 167.894 14.1161 169.052 12.8288C170.022 11.7475 171.189 10.958 172.545 10.4603C172.905 10.3316 173.301 10.2715 173.686 10.2629C175.085 10.2372 176.475 10.2114 177.866 10.4345C178.964 10.6062 179.959 11.0267 180.843 11.7046C181.212 11.9878 181.393 12.3225 181.376 12.8117C181.342 13.5411 181.375 14.2791 181.358 15.0086C181.342 15.6608 180.93 15.8925 180.346 15.6179C179.359 15.1545 178.39 14.631 177.376 14.2534C176.047 13.7642 174.682 13.7299 173.335 14.2877C171.961 14.8541 171.249 16.2186 171.498 17.6775C171.661 18.5957 172.159 19.2822 172.88 19.8315C173.412 20.2348 173.986 20.5437 174.605 20.7926C175.626 21.2131 176.656 21.625 177.668 22.0627C178.784 22.5432 179.831 23.1268 180.681 24.0193C180.887 24.2339 181.101 24.457 181.255 24.7144C181.358 24.8775 181.41 25.092 181.41 25.2808C181.418 27.7094 181.418 30.1381 181.402 32.5667C181.402 32.7727 181.333 32.9958 181.221 33.1674C180.526 34.2315 179.565 34.9953 178.415 35.5102C176.767 36.2568 175.042 36.48 173.24 36.2483C172.142 36.1024 171.121 35.7419 170.134 35.2614C169.507 34.9524 168.915 34.5663 168.297 34.2315C168.006 34.0686 167.868 33.8368 167.877 33.4935C167.868 33.0387 167.859 32.5839 167.859 32.1205Z" fill="#1B559B"/>
<path d="M144.638 14.9616C142.878 13.6486 140.912 13.1079 138.759 13.2023C136.974 13.2795 135.344 13.8288 133.867 14.8243C132.357 15.8369 131.224 17.1928 130.477 18.8662C129.68 20.6341 129.456 22.4791 129.799 24.3842C130.228 26.7957 131.43 28.7438 133.352 30.2369C135.06 31.5671 137.016 32.2622 139.196 32.2622C140.827 32.2622 142.303 31.7216 143.642 30.8291C143.968 30.606 144.285 30.3656 144.603 30.1425C144.723 30.4258 144.766 33.5495 144.646 34.2703C143.53 34.7423 142.355 35.0341 141.145 35.2144C139.557 35.4546 137.987 35.386 136.425 35.0598C134.657 34.6908 133.026 33.9957 131.55 32.9573C129.534 31.5414 128.032 29.7135 127.062 27.4479C126.667 26.5296 126.419 25.5771 126.264 24.5902C126.187 24.1096 126.101 23.6291 126.058 23.1484C125.972 22.3246 126.169 21.5266 126.315 20.7198C126.59 19.1408 127.165 17.6734 128.015 16.3261C129.284 14.3179 131.018 12.7904 133.138 11.7091C136.038 10.2245 139.085 9.91552 142.243 10.5763C142.973 10.7308 143.667 11.014 144.388 11.2199C144.629 11.2886 144.706 11.4173 144.706 11.649C144.697 12.3699 144.706 13.0908 144.706 13.803C144.706 14.0862 144.706 14.378 144.689 14.6612C144.689 14.7556 144.654 14.85 144.638 14.9616Z" fill="#1B559B"/>
<path d="M167.207 34.3743C167.001 34.3915 166.881 34.4086 166.753 34.4172C165.268 34.4601 163.792 34.4944 162.308 34.5374C162.067 34.5459 161.904 34.4772 161.784 34.2541C161.166 33.1729 160.531 32.0916 159.905 31.0102C159.424 30.195 158.943 29.3712 158.488 28.5473C158.325 28.2469 158.111 28.1354 157.768 28.1354C154.001 28.1525 150.233 28.1525 146.466 28.1525C146.397 28.1525 146.337 28.1354 146.208 28.1182C146.276 27.9723 146.328 27.8608 146.388 27.7492C146.938 26.8224 147.495 25.9041 148.019 24.9688C148.182 24.677 148.379 24.5653 148.706 24.574C149.581 24.5997 150.456 24.5911 151.34 24.5997C152.833 24.6083 154.335 24.6168 155.828 24.6255C155.879 24.6255 155.939 24.6083 156.06 24.5825C156 24.4366 155.957 24.3079 155.888 24.1878C155.004 22.7461 154.12 21.3043 153.228 19.8626C152.018 17.9145 150.799 15.9665 149.59 14.0099C149.194 13.3749 148.817 12.7312 148.422 12.0962C148.294 11.8988 148.285 11.7358 148.44 11.547C148.603 11.3496 148.731 11.1093 148.903 10.9291C149.452 10.3627 150.113 10.1396 150.902 10.294C151.674 10.4399 152.198 10.8947 152.61 11.547C153.605 13.126 154.635 14.6793 155.639 16.2497C156.644 17.803 157.639 19.3649 158.634 20.9267C159.836 22.7976 161.046 24.6684 162.247 26.5478C163.843 29.0364 165.439 31.5252 167.036 34.0139C167.079 34.1169 167.122 34.2026 167.207 34.3743Z" fill="#1B559B"/>
<path d="M127.56 34.3562C127.062 34.3733 126.616 34.3905 126.17 34.3991C125.037 34.4334 123.895 34.442 122.763 34.4935C122.445 34.5107 122.282 34.3991 122.128 34.1244C121.296 32.6485 120.428 31.1896 119.579 29.722C119.33 29.2844 119.056 28.8639 118.824 28.4177C118.687 28.1602 118.515 28.0915 118.24 28.0915C116.644 28.1002 115.048 28.1002 113.452 28.1002C111.298 28.1002 109.135 28.1087 106.981 28.1087C106.878 28.1087 106.766 28.083 106.595 28.0658C106.818 27.6797 107.016 27.3535 107.204 27.0274C107.634 26.298 108.071 25.5771 108.491 24.8391C108.621 24.616 108.775 24.5559 109.015 24.5559C111.358 24.573 113.71 24.5731 116.052 24.5816C116.172 24.5816 116.292 24.5816 116.472 24.5816C116.421 24.4357 116.404 24.3585 116.361 24.2899C114.936 21.9986 113.512 19.7072 112.096 17.4159C110.997 15.6481 109.916 13.8631 108.826 12.0953C108.697 11.8893 108.663 11.7091 108.852 11.5203C108.972 11.4002 109.066 11.2457 109.169 11.1084C109.71 10.3618 110.594 10.0957 111.486 10.3275C112.139 10.4991 112.576 10.8938 112.92 11.4173C113.872 12.8762 114.808 14.3351 115.751 15.794C117.279 18.1711 118.798 20.5654 120.325 22.9425C121.33 24.513 122.359 26.0749 123.364 27.6453C124.625 29.6191 125.886 31.5929 127.14 33.5667C127.285 33.7898 127.526 33.9786 127.56 34.3562Z" fill="#1B559B"/>
<path d="M198.204 21.0056C198.204 20.8082 198.204 20.6623 198.204 20.5251C198.204 17.3241 198.204 14.1145 198.204 10.9136C198.204 10.3901 198.333 10.2528 198.865 10.2528C199.552 10.2442 200.247 10.2442 200.933 10.2528C201.371 10.2528 201.517 10.3987 201.525 10.8535C201.534 11.5314 201.525 12.2008 201.525 12.8788C201.525 20.0187 201.525 27.1673 201.525 34.3073C201.525 34.3502 201.525 34.3931 201.525 34.436C201.586 35.114 201.293 35.1997 200.778 35.1826C200.118 35.1654 199.457 35.1826 198.796 35.174C198.359 35.174 198.204 35.0195 198.204 34.5818C198.204 31.235 198.196 27.8882 198.196 24.5327C198.196 24.4726 198.187 24.4211 198.187 24.3096C198.075 24.2924 197.956 24.2495 197.835 24.2495C195.114 24.2495 192.395 24.2581 189.683 24.2581C187.829 24.2581 185.975 24.2667 184.113 24.2667C183.573 24.2667 183.341 24.0178 183.332 23.4686C183.332 22.9107 183.332 22.3443 183.332 21.7866C183.332 21.3232 183.607 21.0485 184.079 21.0485C186.593 21.0399 189.116 21.0399 191.631 21.0399C193.656 21.0399 195.689 21.0314 197.715 21.0314C197.861 21.0314 197.998 21.0142 198.204 21.0056Z" fill="#1B559B"/>
<path d="M91.2422 24.1854C91.2422 23.3787 91.2334 22.6235 91.2422 21.8597C91.2422 21.568 91.4993 21.3534 91.8259 21.3534C92.4607 21.3448 93.0955 21.3448 93.7224 21.3448C94.889 21.3448 96.0564 21.3534 97.2151 21.3363C98.2532 21.3277 99.2833 21.2504 100.296 20.993C101.128 20.7871 101.909 20.4781 102.493 19.8002C103.986 18.0667 103.463 15.372 101.429 14.2736C100.399 13.7243 99.3 13.484 98.1502 13.4755C96.082 13.4497 94.005 13.4669 91.9369 13.4669C91.8339 13.4669 91.7309 13.4755 91.6366 13.4669C91.3196 13.4326 91.1304 13.2523 91.1304 12.9348C91.1216 12.214 91.1304 11.4931 91.1304 10.7808C91.1304 10.5234 91.3196 10.3174 91.568 10.2745C91.6973 10.2573 91.8259 10.2573 91.9544 10.2573C94.7349 10.2573 97.5066 10.2402 100.287 10.2487C102.012 10.2487 103.531 10.8237 104.801 11.9994C105.917 13.0292 106.646 14.2993 106.844 15.7925C107.058 17.423 106.981 19.0449 106.175 20.5382C105.23 22.2802 103.84 23.5075 101.883 24.0052C101.471 24.1082 101.034 24.1424 100.605 24.1596C99.8582 24.1854 99.1116 24.1682 98.365 24.1768C96.1762 24.1854 93.9883 24.2026 91.8083 24.2111C91.6366 24.2197 91.457 24.2026 91.2422 24.1854Z" fill="#1B559B"/>
<path d="M29.9431 29.5266C30.3782 29.5266 30.7521 29.5266 31.1337 29.5266C32.4847 29.519 33.8355 29.5114 35.1864 29.4884C35.4078 29.4884 35.5299 29.5727 35.6368 29.7642C36.4152 31.1207 37.209 32.4771 37.9951 33.8336C38.0867 33.9868 38.2012 34.1248 38.331 34.3087C38.1783 34.3241 38.0562 34.3547 37.9264 34.3547C32.4617 34.3623 27.0047 34.37 21.54 34.3777C21.3339 34.3777 21.2041 34.3317 21.082 34.1248C20.3265 32.8067 19.5556 31.4962 18.7847 30.1857C18.6855 30.0171 18.5634 29.8485 18.4337 29.657C17.4949 31.2816 16.5714 32.8909 15.625 34.5386C13.778 34.5003 11.9233 34.4697 10 34.4313C10.2366 33.8719 10.5572 33.4121 10.8243 32.9293C11.099 32.4388 11.3967 31.9637 11.6791 31.4732C11.9615 30.9904 12.2363 30.5 12.5186 30.0095C12.801 29.5266 13.0834 29.0362 13.3658 28.5534C13.6559 28.0553 13.9382 27.5648 14.2283 27.0667C14.5107 26.5839 14.7931 26.0934 15.0831 25.6106C15.3655 25.1278 15.6479 24.6373 15.9379 24.1546C16.2203 23.6717 16.5103 23.1812 16.7927 22.6985C17.0751 22.2157 17.3575 21.7252 17.6399 21.2424C17.9223 20.7596 18.197 20.2692 18.5099 19.7404C20.3265 19.7787 22.1658 19.8093 24.0739 19.8476C24.0052 19.679 23.9747 19.5564 23.9136 19.4491C23.6007 18.9127 23.2878 18.3762 22.9748 17.8398C22.4711 16.9738 21.9674 16.1002 21.456 15.2342C21.3491 15.0503 21.3415 14.9047 21.456 14.7054C22.2421 13.3566 23.0207 11.9925 23.7992 10.6361C23.9136 10.4445 24.0129 10.2452 24.1426 10C24.2266 10.1073 24.2952 10.1686 24.341 10.2452C25.3408 11.9619 26.3331 13.6785 27.3252 15.3951C28.0961 16.7286 28.8745 18.0697 29.6455 19.4032C30.6147 21.0661 31.584 22.7291 32.5533 24.3921C32.6373 24.5377 32.6449 24.6603 32.5686 24.7906C32.2252 25.3884 31.874 25.9938 31.523 26.5915C31.0193 27.4576 30.5078 28.3235 30.0042 29.1972C29.9736 29.2738 29.9736 29.3887 29.9431 29.5266ZM29.7217 29.5343C29.6531 29.3504 29.6225 29.2278 29.5615 29.1205C29.2028 28.4998 28.8441 27.879 28.4777 27.2583C27.6534 25.8405 26.8215 24.4304 25.9972 23.0127C25.4706 22.116 24.944 21.2117 24.425 20.3151C24.3486 20.1849 24.2876 19.9856 24.1121 20.0239C23.9976 20.0469 23.8907 20.1925 23.822 20.3151C23.0588 21.6409 22.3032 22.9743 21.54 24.3002C20.5783 25.9708 19.609 27.6338 18.6474 29.3044C18.6092 29.3734 18.5863 29.45 18.5252 29.6109C22.2574 29.6109 25.9438 29.542 29.7217 29.5343Z" fill="#1B559B"/>
<circle cx="209.5" cy="5.5" r="5.1" stroke="#1B559B" stroke-width="0.8"/>
<path d="M210.476 8L209.75 6.758C209.718 6.762 209.668 6.764 209.6 6.764H208.652V8H207.848V3.8H209.6C210.144 3.8 210.564 3.926 210.86 4.178C211.156 4.43 211.304 4.786 211.304 5.246C211.304 5.574 211.232 5.854 211.088 6.086C210.948 6.318 210.742 6.492 210.47 6.608L211.394 8H210.476ZM208.652 6.056H209.6C209.904 6.056 210.136 5.99 210.296 5.858C210.456 5.726 210.536 5.53 210.536 5.27C210.536 5.014 210.456 4.822 210.296 4.694C210.136 4.566 209.904 4.502 209.6 4.502H208.652V6.056Z" fill="#1B559B"/>
</svg>
